<svg width="136" height="40" viewBox="0 0 136 40" fill="none" xmlns="http://www.w3.org/2000/svg">
<g clip-path="url(#clip0)">
<path d="M130.333 40H5.33337C2.53337 40 0.333374 37.8 0.333374 35V5C0.333374 2.3 2.53337 0 5.33337 0H130.333C133.133 0 135.333 2.2 135.333 5V35C135.333 37.7 133.033 40 130.333 40Z" fill="#070809"/>
<path d="M130.333 0.8C132.633 0.8 134.533 2.7 134.533 5V35C134.533 37.3 132.633 39.2 130.333 39.2H5.33337C3.03337 39.2 1.13337 37.3 1.13337 35V5C1.13337 2.7 3.03337 0.8 5.33337 0.8H130.333ZM130.333 0H5.33337C2.53337 0 0.333374 2.3 0.333374 5V35C0.333374 37.8 2.53337 40 5.33337 40H130.333C133.133 40 135.333 37.8 135.333 35V5C135.333 2.3 133.033 0 130.333 0Z" fill="#A6A6A6"/>
<path d="M47.7334 10.1999C47.7334 10.9999 47.5334 11.6999 47.0334 12.1999C46.4334 12.7999 45.7334 13.0999 44.8334 13.0999C43.9334 13.0999 43.2334 12.7999 42.6334 12.1999C42.0334 11.5999 41.7334 10.8999 41.7334 9.9999C41.7334 9.0999 42.0334 8.3999 42.6334 7.7999C43.2334 7.1999 43.9334 6.8999 44.8334 6.8999C45.2334 6.8999 45.6334 6.9999 46.0334 7.1999C46.4334 7.3999 46.7334 7.5999 46.9334 7.8999L46.4334 8.3999C46.0334 7.8999 45.5334 7.6999 44.8334 7.6999C44.2334 7.6999 43.6334 7.8999 43.2334 8.3999C42.7334 8.7999 42.5334 9.3999 42.5334 10.0999C42.5334 10.7999 42.7334 11.3999 43.2334 11.7999C43.7334 12.1999 44.2334 12.4999 44.8334 12.4999C45.5334 12.4999 46.0334 12.2999 46.5334 11.7999C46.8334 11.4999 47.0334 11.0999 47.0334 10.5999H44.8334V9.7999H47.7334C47.7334 9.8999 47.7334 10.0999 47.7334 10.1999Z" fill="white" stroke="white" stroke-width="0.2" stroke-miterlimit="10"/>
<path d="M52.3334 7.7H49.6334V9.6H52.1334V10.3H49.6334V12.2H52.3334V13H48.8334V7H52.3334V7.7Z" fill="white" stroke="white" stroke-width="0.2" stroke-miterlimit="10"/>
<path d="M55.6334 13H54.8334V7.7H53.1334V7H57.2334V7.7H55.5334V13H55.6334Z" fill="white" stroke="white" stroke-width="0.2" stroke-miterlimit="10"/>
<path d="M60.2334 13V7H61.0334V13H60.2334Z" fill="white" stroke="white" stroke-width="0.2" stroke-miterlimit="10"/>
<path d="M64.4333 13H63.6334V7.7H61.9333V7H66.0333V7.7H64.3334V13H64.4333Z" fill="white" stroke="white" stroke-width="0.2" stroke-miterlimit="10"/>
<path d="M73.9334 12.1999C73.3334 12.7999 72.6334 13.0999 71.7334 13.0999C70.8334 13.0999 70.1334 12.7999 69.5334 12.1999C68.9334 11.5999 68.6334 10.8999 68.6334 9.9999C68.6334 9.0999 68.9334 8.3999 69.5334 7.7999C70.1334 7.1999 70.8334 6.8999 71.7334 6.8999C72.6334 6.8999 73.3334 7.1999 73.9334 7.7999C74.5334 8.3999 74.8334 9.0999 74.8334 9.9999C74.8334 10.8999 74.5334 11.5999 73.9334 12.1999ZM70.1334 11.6999C70.5334 12.0999 71.1334 12.3999 71.7334 12.3999C72.3334 12.3999 72.9334 12.1999 73.3334 11.6999C73.7334 11.2999 74.0334 10.6999 74.0334 9.9999C74.0334 9.2999 73.8334 8.6999 73.3334 8.2999C72.9334 7.8999 72.3334 7.5999 71.7334 7.5999C71.1334 7.5999 70.5334 7.7999 70.1334 8.2999C69.7334 8.6999 69.4334 9.2999 69.4334 9.9999C69.4334 10.6999 69.6334 11.2999 70.1334 11.6999Z" fill="white" stroke="white" stroke-width="0.2" stroke-miterlimit="10"/>
<path d="M75.9333 13V7H76.8334L79.7334 11.7V10.5V7H80.5333V13H79.7334L76.6334 8.1V9.3V13H75.9333Z" fill="white" stroke="white" stroke-width="0.2" stroke-miterlimit="10"/>
<path d="M68.4333 21.8001C66.0333 21.8001 64.1334 23.6001 64.1334 26.1001C64.1334 28.5001 66.0333 30.4001 68.4333 30.4001C70.8333 30.4001 72.7334 28.6001 72.7334 26.1001C72.7334 23.5001 70.8333 21.8001 68.4333 21.8001ZM68.4333 28.6001C67.1334 28.6001 66.0333 27.5001 66.0333 26.0001C66.0333 24.5001 67.1334 23.4001 68.4333 23.4001C69.7333 23.4001 70.8334 24.4001 70.8334 26.0001C70.8334 27.5001 69.7333 28.6001 68.4333 28.6001ZM59.1334 21.8001C56.7334 21.8001 54.8334 23.6001 54.8334 26.1001C54.8334 28.5001 56.7334 30.4001 59.1334 30.4001C61.5333 30.4001 63.4333 28.6001 63.4333 26.1001C63.4333 23.5001 61.5333 21.8001 59.1334 21.8001ZM59.1334 28.6001C57.8334 28.6001 56.7334 27.5001 56.7334 26.0001C56.7334 24.5001 57.8334 23.4001 59.1334 23.4001C60.4333 23.4001 61.5334 24.4001 61.5334 26.0001C61.5334 27.5001 60.4333 28.6001 59.1334 28.6001ZM48.0334 23.1001V24.9001H52.3334C52.2334 25.9001 51.8334 26.7001 51.3334 27.2001C50.7334 27.8001 49.7334 28.5001 48.0334 28.5001C45.3334 28.5001 43.3334 26.4001 43.3334 23.7001C43.3334 21.0001 45.4334 18.9001 48.0334 18.9001C49.4334 18.9001 50.5334 19.5001 51.3334 20.2001L52.6334 18.9001C51.5333 17.9001 50.1334 17.1001 48.1334 17.1001C44.5334 17.1001 41.4333 20.1001 41.4333 23.7001C41.4333 27.3001 44.5334 30.3001 48.1334 30.3001C50.1334 30.3001 51.5334 29.7001 52.7334 28.4001C53.9334 27.2001 54.3334 25.5001 54.3334 24.2001C54.3334 23.8001 54.3334 23.4001 54.2334 23.1001H48.0334ZM93.3334 24.5001C92.9333 23.5001 91.9334 21.8001 89.7334 21.8001C87.5334 21.8001 85.7334 23.5001 85.7334 26.1001C85.7334 28.5001 87.5333 30.4001 89.9333 30.4001C91.8334 30.4001 93.0333 29.2001 93.4333 28.5001L92.0333 27.5001C91.5333 28.2001 90.9333 28.7001 89.9333 28.7001C88.9333 28.7001 88.3334 28.3001 87.8334 27.4001L93.5333 25.0001L93.3334 24.5001ZM87.5333 25.9001C87.5333 24.3001 88.8334 23.4001 89.7334 23.4001C90.4334 23.4001 91.1334 23.8001 91.3334 24.3001L87.5333 25.9001ZM82.9333 30.0001H84.8334V17.5001H82.9333V30.0001ZM79.9333 22.7001C79.4333 22.2001 78.6334 21.7001 77.6334 21.7001C75.5334 21.7001 73.5333 23.6001 73.5333 26.0001C73.5333 28.4001 75.4334 30.2001 77.6334 30.2001C78.6334 30.2001 79.4333 29.7001 79.8334 29.2001H79.9333V29.8001C79.9333 31.4001 79.0334 32.3001 77.6334 32.3001C76.5334 32.3001 75.7333 31.5001 75.5333 30.8001L73.9333 31.5001C74.4333 32.6001 75.6334 34.0001 77.7334 34.0001C79.9334 34.0001 81.7334 32.7001 81.7334 29.6001V22.0001H79.9333V22.7001ZM77.7334 28.6001C76.4334 28.6001 75.3334 27.5001 75.3334 26.0001C75.3334 24.5001 76.4334 23.4001 77.7334 23.4001C79.0334 23.4001 80.0333 24.5001 80.0333 26.0001C80.0333 27.5001 79.0334 28.6001 77.7334 28.6001ZM102.133 17.5001H97.6334V30.0001H99.5333V25.3001H102.133C104.233 25.3001 106.233 23.8001 106.233 21.4001C106.233 19.0001 104.233 17.5001 102.133 17.5001ZM102.133 23.5001H99.4333V19.2001H102.133C103.533 19.2001 104.333 20.4001 104.333 21.3001C104.333 22.4001 103.533 23.5001 102.133 23.5001ZM113.733 21.7001C112.333 21.7001 110.933 22.3001 110.433 23.6001L112.133 24.3001C112.533 23.6001 113.133 23.4001 113.833 23.4001C114.833 23.4001 115.733 24.0001 115.833 25.0001V25.1001C115.533 24.9001 114.733 24.6001 113.933 24.6001C112.133 24.6001 110.333 25.6001 110.333 27.4001C110.333 29.1001 111.833 30.2001 113.433 30.2001C114.733 30.2001 115.333 29.6001 115.833 29.0001H115.933V30.0001H117.733V25.2001C117.533 23.0001 115.833 21.7001 113.733 21.7001ZM113.533 28.6001C112.933 28.6001 112.033 28.3001 112.033 27.5001C112.033 26.5001 113.133 26.2001 114.033 26.2001C114.833 26.2001 115.233 26.4001 115.733 26.6001C115.533 27.8001 114.533 28.6001 113.533 28.6001ZM124.033 22.0001L121.933 27.4001H121.833L119.633 22.0001H117.633L120.933 29.6001L119.033 33.8001H120.933L126.033 22.0001H124.033ZM107.233 30.0001H109.133V17.5001H107.233V30.0001Z" fill="white"/>
<path d="M10.7334 7.5C10.4334 7.8 10.3334 8.3 10.3334 8.9V31C10.3334 31.6 10.5334 32.1 10.8334 32.4L10.9334 32.5L23.3334 20.1V20V19.9L10.7334 7.5Z" fill="url(#paint0_linear)"/>
<path d="M27.3334 24.2998L23.2334 20.1998V19.9998V19.8998L27.3334 15.7998L27.4334 15.8998L32.3334 18.6998C33.7334 19.4998 33.7334 20.7998 32.3334 21.5998L27.3334 24.2998Z" fill="url(#paint1_linear)"/>
<path d="M27.4334 24.2L23.2334 20L10.7334 32.5C11.2334 33 11.9334 33 12.8334 32.6L27.4334 24.2Z" fill="url(#paint2_linear)"/>
<path d="M27.4334 15.7996L12.8334 7.49962C11.9334 6.99962 11.2334 7.09962 10.7334 7.59962L23.2334 19.9996L27.4334 15.7996Z" fill="url(#paint3_linear)"/>
<path opacity="0.2" d="M27.3334 24.0996L12.8334 32.2996C12.0334 32.7996 11.3334 32.6996 10.8334 32.2996L10.7334 32.3996L10.8334 32.4996C11.3334 32.8996 12.0334 32.9996 12.8334 32.4996L27.3334 24.0996Z" fill="#08090A"/>
<path opacity="0.12" d="M10.7334 32.2994C10.4334 31.9994 10.3334 31.4994 10.3334 30.8994V30.9994C10.3334 31.5994 10.5334 32.0994 10.8334 32.3994V32.2994H10.7334Z" fill="#08090A"/>
<path opacity="0.12" d="M32.3334 21.3L27.3334 24.1L27.4334 24.2L32.3334 21.4C33.0334 21 33.3334 20.5 33.3334 20C33.3334 20.5 32.9334 20.9 32.3334 21.3Z" fill="#08090A"/>
<path opacity="0.25" d="M12.8334 7.59978L32.3334 18.6998C32.9334 19.0998 33.3334 19.4998 33.3334 19.9998C33.3334 19.4998 33.0334 18.9998 32.3334 18.5998L12.8334 7.49978C11.4334 6.69978 10.3334 7.29978 10.3334 8.89978V8.99978C10.3334 7.49978 11.4334 6.79978 12.8334 7.59978Z" fill="white"/>
</g>
<defs>
<linearGradient id="paint0_linear" x1="22.1241" y1="8.7097" x2="5.34167" y2="25.4921" gradientUnits="userSpaceOnUse">
<stop stop-color="#3F94D3"/>
<stop offset="0.00657445" stop-color="#3F95D4"/>
<stop offset="0.2601" stop-color="#3BABE7"/>
<stop offset="0.5122" stop-color="#48ADDA"/>
<stop offset="0.7604" stop-color="#49ACD4"/>
<stop offset="1" stop-color="#49ACD3"/>
</linearGradient>
<linearGradient id="paint1_linear" x1="34.1588" y1="20.0012" x2="9.9619" y2="20.0012" gradientUnits="userSpaceOnUse">
<stop stop-color="#F9DD1F"/>
<stop offset="0.4087" stop-color="#EAB62A"/>
<stop offset="0.7754" stop-color="#E09D2F"/>
<stop offset="1" stop-color="#DD942D"/>
</linearGradient>
<linearGradient id="paint2_linear" x1="25.1514" y1="22.2961" x2="2.3931" y2="45.0544" gradientUnits="userSpaceOnUse">
<stop stop-color="#C94452"/>
<stop offset="1" stop-color="#C41663"/>
</linearGradient>
<linearGradient id="paint3_linear" x1="7.6217" y1="0.175823" x2="17.7843" y2="10.3383" gradientUnits="userSpaceOnUse">
<stop stop-color="#379C71"/>
<stop offset="0.0685" stop-color="#399C70"/>
<stop offset="0.4762" stop-color="#3D9C66"/>
<stop offset="0.8009" stop-color="#429C5B"/>
<stop offset="1" stop-color="#429C57"/>
</linearGradient>
<clipPath id="clip0">
<rect width="135" height="40" fill="white" transform="translate(0.333374)"/>
</clipPath>
</defs>
</svg>
